<svg width="16" height="16" viewBox="0 0 24 24" fill="none" xmlns="http://www.w3.org/2000/svg">
<path fill-rule="evenodd" clip-rule="evenodd" d="M1 12C1 5.92487 5.92487 1 12 1C18.0751 1 23 5.92487 23 12C23 18.0751 18.0751 23 12 23C5.92487 23 1 18.0751 1 12ZM12 3C7.02943 3 3 7.02943 3 12C3 16.9706 7.02943 21 12 21C16.9706 21 21 16.9706 21 12C21 7.02943 16.9706 3 12 3ZM12.0043 5.00005C12.5566 5.0001 13.0043 5.44787 13.0042 6.00015L13.0036 11.5903L16.9504 15.537C17.3409 15.9276 17.3409 16.5607 16.9504 16.9513C16.5599 17.3418 15.9267 17.3418 15.5362 16.9513L11.2965 12.7116C11.1089 12.524 11.0036 12.2696 11.0036 12.0043L11.0042 5.99995C11.0043 5.44767 11.452 4.99999 12.0043 5.00005Z" fill="#FF5C00"/>
</svg>
