<svg width="13" height="13" viewBox="0 0 24 24" fill="none" xmlns="http://www.w3.org/2000/svg">
<path fill-rule="evenodd" clip-rule="evenodd" d="M7 4C7 2.34772 8.34772 1 10 1H20C21.6523 1 23 2.34772 23 4V14C23 15.6523 21.6523 17 20 17C19.4477 17 19 16.5523 19 16C19 15.4477 19.4477 15 20 15C20.5477 15 21 14.5477 21 14V4C21 3.45228 20.5477 3 20 3H10C9.45228 3 9 3.45228 9 4C9 4.55228 8.55228 5 8 5C7.44772 5 7 4.55228 7 4ZM1 10C1 8.34315 2.34315 7 4 7H14C15.6569 7 17 8.34315 17 10V20C17 21.6569 15.6569 23 14 23H4C2.34315 23 1 21.6569 1 20V10ZM4 9C3.44772 9 3 9.44772 3 10V20C3 20.5523 3.44772 21 4 21H14C14.5523 21 15 20.5523 15 20V10C15 9.44772 14.5523 9 14 9H4Z" fill="#2C2C2C"/>
</svg>
