<svg width="90" height="88" viewBox="0 0 90 88" fill="none" xmlns="http://www.w3.org/2000/svg">
<path d="M29.1433 8.18808C29.9962 7.82511 30.8361 7.42706 31.7046 7.10423C35.3564 5.74917 39.1449 5.02136 43.0242 4.81199C47.4644 4.5724 51.8258 5.10741 56.0858 6.39854C60.7841 7.82255 65.0631 10.0609 68.9197 13.1041C72.2619 15.7415 75.0887 18.8547 77.4152 22.4226C77.5721 22.6635 77.8191 22.88 77.6111 23.2477C77.5262 23.3983 77.6094 23.645 77.6169 23.8898C77.8378 23.8443 78.0204 23.8069 78.2666 23.7561C78.8081 24.7704 79.3552 25.7928 79.931 26.8715C79.3926 26.9472 78.9403 27.0342 78.4854 27.0585C78.3677 27.0651 78.1958 26.9029 78.123 26.7754C77.3988 25.5032 76.7497 24.1836 75.959 22.9559C75.2809 21.9033 74.472 20.9302 73.6759 19.959C69.9167 15.3706 65.3162 11.8809 59.9 9.47919C55.6463 7.59384 51.1909 6.56157 46.5413 6.36058C43.9892 6.25018 41.4632 6.45392 38.9366 6.80632C37.2568 7.04059 35.6309 7.47888 34.0299 7.98569C32.4264 8.49376 30.839 9.09051 29.3152 9.80165C27.7798 10.5189 26.3016 11.3758 24.8514 12.2585C22.9006 13.4474 21.1463 14.9032 19.4728 16.4601C18.361 17.4942 17.342 18.6125 16.3904 19.7888C16.0705 20.1849 15.7825 20.3865 15.2938 20.1698C15.2171 20.1356 15.1232 20.1389 15.0148 20.1217C14.7749 20.5057 15.012 20.8694 15.0325 21.2329C15.0381 21.3366 15.0518 21.4661 14.9996 21.5419C14.5272 22.2403 14.0408 22.929 13.5317 23.6605C13.2029 23.3925 12.9123 23.5756 12.7701 23.8549C12.7023 23.9869 12.9058 24.2581 13.017 24.5441C11.7765 26.6569 10.6411 28.9548 9.86525 31.4074C9.37071 32.9715 8.98735 34.5722 8.56513 36.1586C8.49641 36.4176 8.33195 36.5326 8.15202 36.71C7.75205 37.1057 7.2748 36.9386 6.77828 37.1651C6.9269 36.4068 7.04544 35.7158 7.20008 35.0323C8.37141 29.8635 10.5012 25.1273 13.5963 20.8279C15.8276 17.7278 18.463 15.0228 21.4879 12.6979C21.6492 12.5735 21.8271 12.4522 22.0174 12.3867C22.3912 12.2585 22.8219 12.2286 22.8739 11.6973C22.8785 11.6471 22.9821 11.6038 23.0427 11.5619C24.9009 10.2897 26.8536 9.18424 28.9005 8.2447C28.9799 8.20834 29.0704 8.19382 29.155 8.16932C29.1388 8.20761 29.118 8.24476 29.1075 8.28495C29.0701 8.42166 29.0363 8.55875 29.0008 8.69609C29.1369 8.71208 29.3014 8.7826 29.4029 8.73141C29.5497 8.65677 29.6506 8.49223 29.7712 8.36633C29.6763 8.28514 29.5916 8.16829 29.4825 8.1341C29.383 8.10396 29.2561 8.16593 29.1411 8.18568L29.1433 8.18808ZM24.8185 11.858C25.1202 11.5239 25.4269 11.1936 25.7093 10.8441C25.7263 10.8238 25.5616 10.5732 25.4572 10.5527C25.1634 10.495 24.4448 11.0084 24.3467 11.3013C24.2329 11.6423 24.3789 11.8243 24.8185 11.858ZM31.9574 7.79708C32.4629 8.06277 32.9353 8.0288 33.2115 7.66045C33.3122 7.52655 33.3498 7.26376 33.2874 7.11406C33.2446 7.01384 32.968 6.95098 32.8093 6.97239C32.357 7.03415 32.1079 7.35276 31.9574 7.79708ZM7.81879 34.6203C8.2984 34.7402 8.62726 34.5994 8.6378 34.2333C8.6425 34.0877 8.47395 33.8539 8.33311 33.8043C8.10247 33.7233 7.84087 34.1508 7.81879 34.6203ZM41.092 6.12074C41.21 5.93129 41.3188 5.81607 41.3451 5.68362C41.3545 5.63548 41.1382 5.4714 41.0732 5.49493C40.9449 5.54088 40.8505 5.6811 40.7425 5.78182C40.8372 5.87385 40.9319 5.96588 41.092 6.12074Z" fill="#06C270"/>
<path d="M38.1816 81.6677C38.3729 81.4752 38.5236 81.3522 38.637 81.1994C38.7171 81.0918 38.7442 80.9458 38.7953 80.8171C38.6377 80.7573 38.4572 80.617 38.3276 80.6541C38.0824 80.7255 37.8292 80.861 37.6456 81.0381C37.2681 81.4017 36.8897 81.4522 36.3769 81.3325C31.4308 80.1783 26.878 78.1468 22.724 75.2256C20.2911 73.5147 18.0786 71.5504 16.1047 69.3204C16.0663 69.2772 16.0342 69.2276 16.0187 69.2073C16.4191 68.8917 16.8116 68.5836 17.1788 68.2934C18.2613 69.3333 19.3607 70.4753 20.5492 71.5147C25.8866 76.182 32.0635 79.0864 39.0526 80.2506C39.5044 80.3257 39.9629 80.3658 40.4135 80.4456C40.6835 80.4932 41.0038 80.3941 41.1174 80.8508C41.1757 81.0866 41.503 80.9857 41.7176 80.8187C41.8456 80.7188 42.0305 80.6217 42.1829 80.6318C45.0753 80.8294 47.9512 80.7115 50.8166 80.2701C50.989 80.2432 51.1909 80.331 51.3643 80.4011C51.6587 80.52 51.897 80.5405 52.0465 80.1918C52.0784 80.118 52.1718 80.0409 52.2507 80.0208C53.083 79.8111 53.9185 79.6118 54.7534 79.4143C54.8359 79.3946 54.9448 79.3766 55.0102 79.4133C55.2768 79.5649 55.4054 79.4379 55.6048 79.2515C55.7946 79.0744 56.1023 79.0132 56.3663 78.9283C60.6112 77.5737 64.4762 75.5044 67.9671 72.7359C72.8291 68.8797 76.4918 64.0919 79.0017 58.4163C79.2948 57.7529 79.5527 57.0747 79.8407 56.3689C80.184 56.5034 80.4649 56.3793 80.5196 56.0205C80.5433 55.8632 80.3421 55.6718 80.2321 55.4775C80.6332 53.8239 81.051 52.0842 81.4856 50.3494C81.5122 50.2448 81.6637 50.1208 81.7755 50.0979C82.195 50.0138 82.6218 49.9691 83.1443 49.8957C82.9829 50.7224 82.8323 51.4926 82.6761 52.2925C82.427 52.2527 82.2156 52.2194 81.9628 52.1784C81.8731 52.6466 81.8922 53.0509 82.183 53.4323C82.2602 53.534 82.2932 53.7238 82.2588 53.8502C81.2816 57.4332 79.8059 60.8008 77.8508 63.954C75.2693 68.1172 72.0191 71.6712 68.0995 74.6053C64.8644 77.0263 61.3536 78.9432 57.5036 80.1731C55.5764 80.7887 53.5879 81.2105 51.6263 81.7157C51.4702 81.7557 51.306 81.7635 51.15 81.7854C50.8671 81.1724 50.7739 81.1747 50.2547 81.6231C50.036 81.8123 49.7401 81.9898 49.4623 82.0208C45.7662 82.4403 42.0787 82.3715 38.4091 81.7267C38.3557 81.7171 38.3037 81.6992 38.1796 81.6662L38.1816 81.6677ZM74.818 66.6896C75.3346 66.798 75.6308 66.6673 75.6372 66.2846C75.6397 66.1366 75.467 65.9052 75.3232 65.8534C75.1037 65.7752 74.8286 66.2407 74.818 66.6896ZM77.578 61.8468C77.4209 62.1741 77.3019 62.3628 77.2491 62.5692C77.2348 62.627 77.4878 62.8166 77.4975 62.8089C77.6836 62.6432 77.8605 62.4635 78.0097 62.2651C78.021 62.25 77.8066 62.0668 77.5781 61.8477L77.578 61.8468ZM35.8516 80.0117C35.5068 80.0583 35.2094 80.1352 35.1737 80.5202C35.1704 80.554 35.4627 80.6777 35.5945 80.6502C35.9138 80.5819 36.0931 80.3937 35.8516 80.0117ZM60.8561 77.686L60.9235 77.9034C61.1337 77.8964 61.3447 77.8892 61.5549 77.8822L61.5233 77.2294C61.4749 77.211 61.4258 77.1936 61.3773 77.1752C61.2036 77.3454 61.0297 77.5148 60.856 77.6851L60.8561 77.686Z" fill="#06C270"/>
<path d="M23.0699 59.9241L22.8548 58.394C23.022 58.3624 23.175 58.3256 23.3301 58.3038C38.8303 56.1245 54.3319 53.9477 69.8307 51.7578C70.2739 51.6955 70.3854 51.8239 70.4305 52.2344C70.5414 53.247 70.5606 53.2497 69.5517 53.3915C56.6357 55.2067 43.7204 57.0201 30.8043 58.8344C28.4146 59.1703 26.0251 59.5079 23.6356 59.8446C23.4628 59.8689 23.2901 59.8932 23.0699 59.9241ZM39.3714 57.5764C39.912 57.0115 39.9343 56.7995 39.5241 56.3106C38.9298 56.6597 38.8647 57.1299 39.3714 57.5764ZM30.7126 58.4953C30.9868 58.2983 31.3797 58.2232 31.2493 57.7941C31.2258 57.7164 30.856 57.6423 30.7423 57.7159C30.4614 57.8976 30.4308 58.1783 30.7126 58.4953ZM34.8409 57.4811C34.8906 57.4894 34.9402 57.4969 34.9899 57.5052C35.0298 57.3735 35.1417 57.1921 35.0923 57.1216C35.018 57.015 34.8332 56.9852 34.6951 56.9236C34.6688 56.9597 34.6424 56.9958 34.617 57.0327C34.692 57.1824 34.7659 57.3314 34.8409 57.4811Z" fill="#06C270"/>
<path d="M67.1079 28.6557L19.6374 35.3272L19.4284 33.8404C19.5825 33.8116 19.7487 33.7729 19.917 33.7492C31.1943 32.1661 42.4727 30.5847 53.7499 29.0007C57.9583 28.4092 62.1678 27.8194 66.3736 27.2094C66.8051 27.147 66.9619 27.2591 66.9773 27.6819C66.9882 27.9892 67.0571 28.2946 67.1079 28.6557ZM53.7352 29.7914C53.9071 29.5764 54.0193 29.4346 54.1325 29.2935C54.0201 29.2229 53.8746 29.0696 53.8005 29.0989C53.6327 29.1648 53.4992 29.3204 53.3523 29.4392C53.4546 29.5337 53.5568 29.6283 53.7344 29.7924L53.7352 29.7914Z" fill="#06C270"/>
<path d="M74.0831 59.6963L74.1741 60.3444C74.2867 60.3529 74.3985 60.3615 74.5321 60.3724C74.5158 60.4287 74.5097 60.4881 74.483 60.5342C73.3184 62.5733 71.9508 64.4662 70.3919 66.2186C68.8104 67.9958 67.0712 69.6034 65.151 71.0104C64.8406 71.2377 64.5291 71.4633 64.2072 71.6733C63.9421 71.8456 63.7271 72.1126 63.3106 71.9362C63.1635 71.874 62.807 72.0745 62.6719 72.251C61.599 73.6641 59.9472 74.1223 58.459 74.8437C58.0435 75.0453 57.5674 75.1167 57.1314 75.2815C56.5034 75.5192 55.9002 75.83 55.2623 76.0358C52.8445 76.8168 50.3672 77.3225 47.8312 77.506C46.7931 77.5808 45.7506 77.6373 44.7098 77.6287C43.6311 77.6191 42.5492 77.5614 41.4768 77.4501C40.4192 77.3412 39.3634 77.1754 38.3206 76.9672C37.2779 76.7599 36.2379 76.5144 35.2197 76.2064C31.0072 74.9338 27.1733 72.9283 23.7327 70.1723C21.6539 68.5071 19.7826 66.6363 18.1567 64.5239C18.0061 64.3281 17.9062 64.0585 17.878 63.8131C17.846 63.534 17.7313 63.4024 17.4889 63.2888C17.2773 63.1898 17.0459 63.0459 16.9232 62.8569C16.2247 61.7801 15.5557 60.6839 14.8701 59.5837C15.5843 59.2825 15.6573 59.3092 15.9773 59.8665C19.9715 66.8231 25.6943 71.7775 33.1649 74.6675C38.8036 76.8489 44.6323 77.3974 50.5785 76.3708C57.4537 75.184 63.3905 72.1149 68.375 67.2125C68.6433 66.9479 68.9821 66.7499 69.2263 66.4671C69.7918 65.8105 70.3535 65.1463 70.8526 64.4396C71.8781 62.99 72.8618 61.5111 73.8614 60.0435C73.9179 59.9599 73.9694 59.8726 74.081 59.6948L74.0831 59.6963Z" fill="#06C270"/>
<path d="M51.6762 69.8323C50.7645 69.4958 49.9537 69.219 49.1632 68.8943C48.755 68.7266 48.439 68.7287 48.0765 69.0201C47.3983 69.5647 46.6786 70.0574 45.8851 70.6389C45.8919 70.2526 45.8907 69.9566 45.9049 69.6611C45.9369 68.9804 45.9914 68.3011 46.0027 67.6206C46.0054 67.4798 45.8915 67.2896 45.7731 67.2018C45.0456 66.6666 44.3016 66.1554 43.5634 65.6343C43.5075 65.5944 43.4583 65.5446 43.3437 65.4454C44.2765 65.1901 45.1356 64.9289 46.0085 64.727C46.408 64.6348 46.5975 64.4425 46.7102 64.0549C46.9562 63.2037 47.2529 62.367 47.5573 61.4382C47.9846 62.0687 48.3759 62.6341 48.7547 63.2066C49.4072 64.1926 49.4041 64.1895 50.5751 64.159C51.2637 64.1415 51.9533 64.1445 52.7465 64.1366C52.1219 64.9032 51.5734 65.5971 51.0004 66.2709C50.7522 66.5633 50.6417 66.8129 50.8104 67.2142C51.0902 67.8816 51.286 68.5843 51.5141 69.2734C51.5641 69.4249 51.6038 69.5795 51.6769 69.8313L51.6762 69.8323ZM50.2749 66.281C50.4484 66.0703 50.5665 65.9258 50.6854 65.7813C50.5549 65.7096 50.4002 65.5549 50.3012 65.5859C50.1461 65.6329 50.0292 65.8051 49.896 65.9246C50.0005 66.0225 50.1041 66.1205 50.2759 66.2818L50.2749 66.281Z" fill="#06C270"/>
<path d="M41.1815 16.1948C41.7459 17.014 42.2768 17.7668 42.7879 18.5332C42.9494 18.7743 43.1076 18.8962 43.4275 18.8836C44.3678 18.8478 45.3101 18.8648 46.3662 18.8605C45.7982 19.5696 45.3328 20.2347 44.779 20.8149C44.3607 21.2527 44.3006 21.6366 44.5286 22.1853C44.834 22.9194 45.0469 23.6926 45.3338 24.5517C44.6513 24.3046 44.0274 24.1555 43.4812 23.8622C42.5862 23.383 41.8539 23.4535 41.1159 24.1739C40.6766 24.603 40.1198 24.9118 39.6144 25.2736C39.6046 25.2804 39.586 25.2758 39.5095 25.2811C39.5413 24.5168 39.5105 23.7477 39.6211 23.0002C39.7242 22.3014 39.5107 21.8821 38.9082 21.5401C38.3184 21.2052 37.7841 20.7725 37.2275 20.3798C37.1616 20.3333 37.1085 20.2687 36.9955 20.1612C37.793 19.9411 38.5189 19.6905 39.2662 19.5477C39.9321 19.4208 40.3107 19.1353 40.4603 18.4345C40.6203 17.6872 40.923 16.9703 41.1796 16.1942L41.1815 16.1948ZM42.7779 20.9107C43.0424 20.7853 43.2994 20.6636 43.4678 20.5832C43.6122 20.7538 43.7225 20.976 43.8093 20.9674C43.9804 20.9506 44.1766 20.8375 44.2926 20.7041C44.3869 20.5954 44.406 20.3983 44.4063 20.2406C44.4068 20.1163 44.3504 19.9073 44.2775 19.8869C44.1663 19.8566 43.947 19.9198 43.9019 20.0081C43.7619 20.2844 43.5664 20.2551 43.3176 20.237C42.8644 20.2025 42.7089 20.4072 42.777 20.9108L42.7779 20.9107Z" fill="#06C270"/>
<path d="M75 27.5321C74.2511 27.7147 74.2552 27.7124 73.9106 27.108C73.6983 26.7354 73.48 26.3646 73.2503 26.0025C73.0354 25.6626 72.7534 25.3439 73.2078 24.8182C72.4067 24.9875 72.2528 24.4356 71.9588 24.0574C71.2864 23.1921 70.6099 22.3301 69.9855 21.531C70.0129 21.2849 70.0356 21.0819 70.0581 20.8779C69.8558 20.8641 69.6536 20.8511 69.3741 20.8318C68.553 20.0595 67.6713 19.1822 66.7395 18.3633C63.8063 15.7845 60.5115 13.7851 56.8557 12.4262C55.28 11.8409 53.636 11.4408 52.0195 10.9675C51.7421 10.8868 51.4541 10.8642 51.5413 10.4486C51.5542 10.3874 51.4403 10.2989 51.3847 10.223C51.3143 10.2851 51.2216 10.3351 51.1804 10.4129C51.1333 10.4996 51.1329 10.6114 51.0992 10.7745C50.5895 10.5941 49.9838 10.7918 49.6556 10.3553C49.3186 10.381 49.0475 10.4336 48.781 10.417C47.4287 10.3342 46.0776 10.2342 44.7317 10.1397C44.7785 9.92879 44.8315 9.69264 44.8855 9.45007C57.1051 9.18858 69.3251 16.4675 75 27.5321Z" fill="#06C270"/>
<path d="M52.7284 15.7245C53.2446 16.4883 53.7009 17.1391 54.1283 17.8083C54.2826 18.0495 54.4532 18.1444 54.737 18.1369C55.557 18.1153 56.3781 18.1205 57.2885 18.1151C56.8483 18.6658 56.4814 19.2009 56.0363 19.6587C55.5732 20.1361 55.4224 20.5778 55.7317 21.2186C56.0053 21.7843 56.1417 22.416 56.3726 23.1192C55.6619 22.8643 55.0108 22.6812 54.4059 22.3989C53.8434 22.1367 53.4136 22.1791 52.941 22.5949C52.4453 23.0319 51.8759 23.3856 51.2538 23.8377C51.2692 23.3394 51.2169 22.9101 51.3067 22.513C51.5676 21.3581 51.2137 20.5597 50.1177 20.0628C49.7376 19.8902 49.4204 19.5774 48.9895 19.267C49.8247 19.0398 50.5681 18.8245 51.3187 18.6407C51.6782 18.5524 51.8991 18.4043 52.0019 18.0099C52.1915 17.281 52.4549 16.5723 52.7293 15.7243L52.7284 15.7245ZM53.4652 21.1464C53.0711 21.3341 52.8378 21.7072 53.0117 21.8962C53.0892 21.9807 53.3485 22.0226 53.426 21.9604C53.7216 21.7235 53.6445 21.4309 53.4652 21.1464Z" fill="#06C270"/>
<path d="M40.8052 66.6169C40.2389 67.325 39.7589 67.9632 39.2337 68.5611C39.0081 68.8169 39.01 69.0346 39.1112 69.3202C39.3704 70.058 39.6133 70.8018 39.8929 71.6341C39.2283 71.3934 38.6138 71.2349 38.0613 70.9542C37.3936 70.615 36.8788 70.6855 36.3283 71.1933C35.8678 71.6181 35.3141 71.9426 34.7478 72.3508C34.7891 71.5194 34.8171 70.7529 34.8732 69.9887C34.8827 69.864 35.049 69.756 35.0792 69.6257C35.1254 69.4239 35.1168 69.209 35.1314 68.9999C34.9665 69.0095 34.8015 69.0246 34.6365 69.0271C34.5083 69.0289 34.3492 69.0603 34.2562 68.9995C33.6899 68.6271 33.1391 68.2309 32.4956 67.783C33.1509 67.599 33.7139 67.3786 34.2976 67.2929C35.0979 67.1759 35.5336 66.7915 35.6853 65.9851C35.7882 65.4385 36.0231 64.9166 36.199 64.3841C36.2026 64.3718 36.2185 64.3633 36.2892 64.2913C36.6299 64.97 37.2658 65.428 37.3888 66.2453C37.4137 66.4102 37.8813 66.6047 38.1538 66.6186C39.007 66.6608 39.8645 66.624 40.8061 66.6168L40.8052 66.6169Z" fill="#06C270"/>
<path d="M55.3478 64.5543C56.2605 64.3027 57.0603 64.0993 57.847 63.8528C58.0218 63.7985 58.2087 63.6201 58.2856 63.4508C58.4442 63.1026 58.5001 62.7076 58.6579 62.3595C58.815 62.0133 59.046 61.7008 59.2876 61.3031C59.7403 61.967 60.1222 62.5616 60.5455 63.1251C60.654 63.2701 60.8889 63.3947 61.0694 63.3999C61.8947 63.4226 62.7218 63.4 63.6606 63.3923C63.0556 64.1445 62.5168 64.818 61.9689 65.4848C61.9306 65.5316 61.8208 65.5434 61.7493 65.5336C61.21 65.4618 61.0254 65.6957 61.2169 66.2459C61.4417 66.145 61.6646 66.0434 61.9173 65.9296C62.1909 66.751 62.4528 67.5344 62.7434 68.4065C62.0913 68.1713 61.4763 68.0155 60.9256 67.7346C60.2568 67.3937 59.7355 67.4697 59.1837 67.9677C58.7268 68.3804 58.1901 68.7043 57.6895 69.0682C57.6442 69.0529 57.5981 69.0378 57.5528 69.0225C57.6424 68.5031 57.7358 67.9848 57.818 67.4637C57.8336 67.3634 57.8148 67.2552 57.796 67.1535C57.7761 67.0437 57.6942 66.9283 57.7148 66.8317C57.8149 66.3675 57.6151 66.1029 57.2274 65.863C56.6134 65.4838 56.0396 65.0396 55.3486 64.5533L55.3478 64.5543Z" fill="#06C270"/>
<path d="M15.6859 27.6155C15.6152 27.4003 15.5535 27.2109 15.4909 27.0207C15.3903 27.1879 15.3028 27.3641 15.1852 27.5184C15.0911 27.6414 14.9606 27.7363 14.7586 27.7818C14.9624 27.4038 15.1595 27.0223 15.3713 26.6495C17.0386 23.7186 19.0948 21.0923 21.5316 18.7646C21.7232 18.581 21.8918 18.4699 22.1813 18.5346C22.5227 18.6109 22.8675 18.584 23.0828 18.1531C22.9427 18.0575 22.7937 17.956 22.578 17.809C28.8131 12.4444 36.0309 9.69957 44.2345 9.46138C43.9034 9.84194 43.6527 10.2508 43.0194 10.284C37.8147 10.5509 32.9539 12.0182 28.4321 14.5994C25.1381 16.4795 22.2603 18.8728 19.7768 21.7446C19.6369 21.9066 19.4147 22.0008 19.2218 22.1117C18.9724 22.2548 18.7236 22.3771 18.838 22.7499C18.8626 22.8293 18.7835 22.9566 18.7245 23.0423C17.9979 24.106 17.32 25.2088 16.5123 26.2073C16.1533 26.6512 16.1107 27.237 15.6879 27.617L15.6859 27.6155Z" fill="#06C270"/>
<path d="M29.8835 18.954C30.3875 19.7016 30.841 20.3257 31.2373 20.9849C31.4307 21.3061 31.6637 21.3715 32 21.3603C32.7782 21.3355 33.5569 21.3395 34.4444 21.331C33.8516 22.0679 33.3191 22.7289 32.7882 23.3887C32.1564 22.9661 31.9461 22.9849 31.4133 23.5541C31.1429 23.8424 30.9077 24.1635 30.6524 24.4758C31.4261 24.8155 31.9876 24.6672 32.6958 23.914C32.8151 24.2511 32.9237 24.5573 33.0158 24.8162C32.908 24.9826 32.8282 25.1055 32.7484 25.2283C32.8591 25.274 32.9739 25.311 33.0781 25.3684C33.1454 25.4058 33.2242 25.4613 33.2496 25.5271C33.339 25.7603 33.4078 26.0009 33.5192 26.3454C32.8416 26.1021 32.2137 25.9437 31.6515 25.658C31.004 25.3285 30.512 25.4337 29.9865 25.8947C29.5121 26.3107 28.9693 26.649 28.3896 27.0699C28.4281 26.1615 28.4771 25.3272 28.4857 24.4931C28.4873 24.3254 28.3781 24.0986 28.2453 23.9975C27.6566 23.549 27.0399 23.1378 26.4344 22.7106C26.3557 22.655 26.2843 22.5885 26.1603 22.4862C26.9746 22.2637 27.7213 22.0399 28.4787 21.8606C28.8353 21.7762 29.0286 21.6176 29.1327 21.2519C29.3453 20.5017 29.6142 19.7679 29.8829 18.9559L29.8835 18.954Z" fill="#06C270"/>
<path d="M16.4995 67.4174C16.1114 67.7628 15.7407 68.0922 15.3436 68.4442C13.2531 65.9541 11.482 63.2238 10.0292 60.175C10.5535 60.1013 11.0252 60.0242 11.4994 59.9783C11.5801 59.9705 11.7127 60.0762 11.7553 60.162C13.0447 62.7764 14.6681 65.1719 16.5013 67.4298C16.5099 67.4403 16.5105 67.4573 16.4976 67.4168L16.4995 67.4174Z" fill="#06C270"/>
<path d="M78.3544 50.5815C77.9466 51.9758 77.5792 53.2682 77.1873 54.5522C77.0228 55.0894 76.8191 55.6151 76.6027 56.1344C76.5228 56.3266 76.3518 56.4784 76.2329 56.6554C76.1623 56.7599 76.0538 56.8832 76.0624 56.9891C76.113 57.605 75.8625 58.022 75.3652 58.3836C74.9527 58.6838 74.626 59.1015 74.1715 59.5571C74.5644 58.7401 74.9139 58.0365 75.2441 57.3238C76.168 55.3302 76.8826 53.2607 77.3474 51.1138C77.4712 50.5436 77.8529 50.6637 78.3553 50.5814L78.3544 50.5815Z" fill="#06C270"/>
<path d="M14.4777 28.3256C14.7807 28.9601 15.0011 28.4312 15.3425 28.322C15.1645 28.6919 15.0127 29.0058 14.8631 29.3159C14.6953 29.3115 14.5412 29.308 14.2625 29.3003C14.7728 29.8688 14.4043 30.3095 14.225 30.7732C14.022 31.2978 13.9009 31.8748 13.6009 32.3357C13.2669 32.849 13.2879 33.4268 13.1004 33.96C12.9055 34.5168 12.7789 35.0991 12.6368 35.6737C12.46 36.3909 12.4673 36.3917 11.658 36.4325C12.246 33.6155 13.1844 30.9446 14.4767 28.3249L14.4777 28.3256Z" fill="#06C270"/>
<path d="M5.96622 44.1644L8.22456 43.847L9.07329 49.886C9.17138 50.584 9.09073 51.2153 8.83135 51.7801C8.57153 52.3419 8.16439 52.8062 7.60993 53.1732C7.05503 53.5371 6.38443 53.7743 5.59812 53.8848C4.80267 53.9966 4.0881 53.9541 3.45439 53.7572C2.82025 53.5573 2.30241 53.2229 1.90088 52.7541C1.49891 52.2823 1.24888 51.6974 1.15079 50.9995L0.302066 44.9605L2.56498 44.6424L3.38609 50.4849C3.43149 50.8079 3.54206 51.0861 3.71781 51.3193C3.8966 51.5522 4.12407 51.7222 4.4002 51.8295C4.67634 51.9367 4.98356 51.9666 5.32185 51.919C5.66015 51.8715 5.94571 51.7583 6.17854 51.5795C6.41441 51.4003 6.5862 51.1742 6.69389 50.9011C6.80158 50.628 6.83272 50.3299 6.78732 50.0069L5.96622 44.1644ZM9.59487 45.5285L9.33659 43.6907L17.2499 42.5786L17.5082 44.4164L14.6693 44.8153L15.7268 52.3401L13.4959 52.6536L12.4384 45.1289L9.59487 45.5285ZM26.9029 44.681L24.6171 45.0023C24.5537 44.7719 24.4614 44.5689 24.3404 44.3932C24.2194 44.2175 24.0717 44.0735 23.8974 43.9613C23.7232 43.849 23.5244 43.7728 23.3012 43.7327C23.0807 43.6891 22.8424 43.6853 22.5864 43.7213C22.1323 43.7851 21.7563 43.9514 21.4584 44.2202C21.1635 44.4885 20.9573 44.8453 20.8396 45.2908C20.725 45.7358 20.7097 46.2569 20.7936 46.8543C20.881 47.476 21.0427 47.9848 21.2785 48.3805C21.517 48.7728 21.8128 49.0529 22.1658 49.2208C22.5215 49.3853 22.9218 49.4362 23.3668 49.3737C23.6167 49.3386 23.8392 49.2746 24.0344 49.1819C24.2327 49.0888 24.401 48.9704 24.5393 48.8266C24.6802 48.6794 24.7885 48.5103 24.8642 48.3194C24.9426 48.1251 24.9857 47.9123 24.9936 47.6812L27.2813 47.3737C27.3 47.7937 27.237 48.2191 27.0924 48.6496C26.9508 49.0798 26.7297 49.4853 26.4289 49.8664C26.1277 50.2443 25.7409 50.566 25.2685 50.8313C24.7992 51.0962 24.243 51.2738 23.5999 51.3642C22.7526 51.4832 21.9676 51.404 21.2449 51.1264C20.5247 50.8453 19.9208 50.3739 19.4331 49.7121C18.9454 49.0503 18.6294 48.2058 18.485 47.1787C18.3402 46.1486 18.4141 45.2478 18.7066 44.4764C18.9991 43.7049 19.4545 43.0861 20.0727 42.6201C20.6909 42.154 21.4161 41.8625 22.2481 41.7456C22.815 41.6659 23.3503 41.6715 23.8541 41.7623C24.3575 41.8501 24.8132 42.0191 25.2214 42.2694C25.6291 42.5167 25.9778 42.8422 26.2677 43.2459C26.5575 43.6496 26.7692 44.128 26.9029 44.681ZM32.6126 40.4195L35.6701 46.9826L35.7479 46.9716L36.8779 39.8201L39.4105 39.4641L37.5674 49.2706L34.5548 49.694L30.08 40.7754L32.6126 40.4195ZM41.7344 48.685L40.4186 39.3225L46.9467 38.405L47.205 40.2427L42.9398 40.8422L43.2096 42.7622L47.1411 42.2097L47.4001 44.052L43.4685 44.6046L43.739 46.5292L48.0043 45.9298L48.2626 47.7675L41.7344 48.685ZM49.6797 47.5683L48.3639 38.2058L52.2314 37.6623C52.9324 37.5637 53.5552 37.6052 54.0997 37.7866C54.6468 37.9646 55.092 38.2687 55.4353 38.6991C55.7782 39.1264 55.9946 39.6601 56.0846 40.3001C56.1758 40.9493 56.1116 41.5208 55.892 42.0148C55.672 42.5057 55.3181 42.9066 54.8303 43.2176C54.3421 43.5255 53.7415 43.7295 53.0283 43.8298L50.5825 44.1735L50.332 42.3906L52.3572 42.106C52.6985 42.058 52.9772 41.9738 53.1934 41.8533C53.4122 41.7293 53.5681 41.5675 53.6613 41.3679C53.754 41.1653 53.7801 40.9192 53.7394 40.6297C53.6987 40.3402 53.6056 40.1093 53.4602 39.937C53.3144 39.7617 53.119 39.6431 52.8741 39.5812C52.6288 39.5162 52.3369 39.5075 51.9986 39.5551L50.8832 39.7118L51.9426 47.2503L49.6797 47.5683ZM54.3494 42.5486L57.2822 46.4999L54.8136 46.8468L51.9264 42.8891L54.3494 42.5486ZM59.1505 36.6899L60.4663 46.0524L58.2034 46.3704L56.8876 37.0079L59.1505 36.6899ZM61.8869 45.8527L60.5711 36.4902L66.9621 35.592L67.2204 37.4298L63.0923 38.0099L63.3621 39.93L67.0834 39.407L67.3423 41.2493L63.6211 41.7723L64.1498 45.5347L61.8869 45.8527ZM70.3645 35.1138L71.6803 44.4764L69.4174 44.7944L68.1016 35.4319L70.3645 35.1138ZM73.1009 44.2767L71.7851 34.9142L78.3133 33.9967L78.5716 35.8345L74.3063 36.4339L74.5762 38.354L78.5077 37.8014L78.7666 39.6437L74.8351 40.1963L75.1056 42.1209L79.3708 41.5215L79.6291 43.3592L73.1009 44.2767ZM84.5069 42.6737L81.0463 43.1601L79.7305 33.7975L83.1866 33.3118C84.1405 33.1777 84.9882 33.2497 85.7296 33.5278C86.4737 33.8024 87.0825 34.2638 87.5558 34.9121C88.0288 35.5574 88.3336 36.3661 88.4702 37.3383C88.6073 38.3136 88.5377 39.178 88.2613 39.9317C87.988 40.6849 87.5318 41.2976 86.8926 41.7697C86.2531 42.2387 85.4578 42.5401 84.5069 42.6737ZM83.0381 40.9128L84.149 40.7567C84.6732 40.683 85.1042 40.5323 85.442 40.3046C85.7825 40.0734 86.0174 39.7436 86.1467 39.3151C86.2787 38.8832 86.2974 38.3305 86.2027 37.657C86.1081 36.9834 85.9382 36.4603 85.6932 36.0876C85.4477 35.7119 85.1281 35.4615 84.7345 35.3366C84.3435 35.2082 83.8798 35.1817 83.3434 35.2571L82.2645 35.4087L83.0381 40.9128Z" fill="#06C270"/>
</svg>
