<svg width="13" height="12" viewBox="0 0 13 12" fill="none" xmlns="http://www.w3.org/2000/svg">
<path d="M6.5 12C9.81371 12 12.5 9.31371 12.5 6C12.5 2.68629 9.81371 0 6.5 0C3.18629 0 0.5 2.68629 0.5 6C0.5 9.31371 3.18629 12 6.5 12Z" fill="#3E73C4"/>
<path d="M8.00809 6.79659C8.00809 6.00009 7.52809 5.72709 6.56809 5.61309C5.88259 5.52197 5.74571 5.34009 5.74571 5.02134C5.74571 4.70259 5.97446 4.49784 6.43121 4.49784C6.84259 4.49784 7.07134 4.63434 7.18534 4.97597C7.19722 5.009 7.21893 5.0376 7.24756 5.05792C7.27619 5.07823 7.31036 5.08929 7.34546 5.08959H7.71109C7.73221 5.09016 7.75322 5.08643 7.77285 5.07863C7.79248 5.07083 7.81033 5.05912 7.8253 5.04422C7.84027 5.02931 7.85206 5.01153 7.85996 4.99193C7.86785 4.97233 7.87168 4.95134 7.87121 4.93022V4.90772C7.82653 4.66056 7.70147 4.43507 7.51546 4.26629C7.32946 4.0975 7.09292 3.99488 6.84259 3.97434V3.42834C6.84259 3.33722 6.77396 3.26897 6.65996 3.24609H6.31684C6.22571 3.24609 6.15709 3.31434 6.13421 3.42834V3.95184C5.44834 4.04259 5.01446 4.49784 5.01446 5.06709C5.01446 5.81784 5.47121 6.11372 6.43121 6.22772C7.07134 6.34134 7.27684 6.47822 7.27684 6.84234C7.27684 7.20609 6.95696 7.45659 6.52271 7.45659C5.92834 7.45659 5.72284 7.20647 5.65421 6.86484C5.63171 6.77409 5.56271 6.72834 5.49409 6.72834H5.10559C5.0845 6.72783 5.06353 6.7316 5.04394 6.73942C5.02435 6.74725 5.00655 6.75896 4.99162 6.77386C4.97669 6.78876 4.96493 6.80653 4.95706 6.8261C4.94919 6.84567 4.94538 6.86663 4.94584 6.88772V6.91022C5.03696 7.47947 5.40296 7.88897 6.15709 8.00297V8.54934C6.15709 8.64009 6.22571 8.70872 6.33971 8.73122H6.68284C6.77396 8.73122 6.84259 8.66297 6.86546 8.54934V8.00259C7.55134 7.88897 8.00809 7.41084 8.00809 6.79622V6.79659Z" fill="white"/>
<path d="M5.33424 9.18637C3.55149 8.54887 2.63724 6.56887 3.30024 4.8165C3.64299 3.86025 4.39712 3.13238 5.33424 2.79075C5.42574 2.74537 5.47112 2.67713 5.47112 2.56313V2.24438C5.47112 2.15363 5.42574 2.08537 5.33424 2.0625C5.31137 2.0625 5.26562 2.0625 5.24274 2.085C4.7284 2.24562 4.25092 2.5064 3.83777 2.85231C3.42463 3.19823 3.084 3.62246 2.83548 4.10056C2.58697 4.57866 2.43548 5.10121 2.38974 5.6381C2.34401 6.17499 2.40493 6.71562 2.56899 7.22888C2.97999 8.50388 3.96287 9.48263 5.24274 9.89213C5.33424 9.9375 5.42574 9.89212 5.44824 9.801C5.47112 9.7785 5.47112 9.75525 5.47112 9.70988V9.39112C5.47112 9.32287 5.40287 9.23212 5.33424 9.18637ZM7.75674 2.08537C7.66524 2.03962 7.57374 2.08537 7.55124 2.17612C7.52837 2.199 7.52837 2.22187 7.52837 2.26725V2.586C7.52837 2.67712 7.59662 2.76787 7.66524 2.81362C9.44799 3.45112 10.3622 5.43113 9.69924 7.1835C9.35649 8.13975 8.60237 8.86763 7.66524 9.20925C7.57374 9.25463 7.52837 9.32288 7.52837 9.43688V9.75562C7.52837 9.84637 7.57374 9.91463 7.66524 9.9375C7.68812 9.9375 7.73387 9.9375 7.75674 9.915C8.27108 9.75438 8.74857 9.4936 9.16171 9.14769C9.57485 8.80177 9.91548 8.37754 10.164 7.89944C10.4125 7.42134 10.564 6.89879 10.6097 6.3619C10.6555 5.82501 10.5946 5.28438 10.4305 4.77112C10.0195 3.47362 9.01374 2.49487 7.75674 2.08537Z" fill="white"/>
</svg>
