<svg width="111" height="95" viewBox="0 0 111 95" fill="none" xmlns="http://www.w3.org/2000/svg">
<rect x="16.3656" y="46.7244" width="78.0558" height="24.7222" rx="12.3611" transform="rotate(-31.344 16.3656 46.7244)" fill="#F8F1ED"/>
<rect x="28.636" y="72.7942" width="70.6058" height="26.5412" rx="13.2706" transform="rotate(-36.4905 28.636 72.7942)" fill="#F8F1ED"/>
<rect x="3.75" y="37" width="2" height="9" rx="1" fill="#32363F"/>
<rect x="0.25" y="42.5" width="2" height="9" rx="1" transform="rotate(-90 0.25 42.5)" fill="#32363F"/>
<rect x="25.75" y="11.3517" width="1.91157" height="5.01423" rx="0.955785" transform="rotate(-45 25.75 11.3517)" fill="#D9D9D9"/>
<rect x="29.2957" y="10" width="1.91157" height="5.01423" rx="0.955785" transform="rotate(45 29.2957 10)" fill="#D9D9D9"/>
<rect x="13.75" y="81.3517" width="1.91157" height="5.01423" rx="0.955785" transform="rotate(-45 13.75 81.3517)" fill="#D9D9D9"/>
<rect x="17.2957" y="80" width="1.91157" height="5.01423" rx="0.955785" transform="rotate(45 17.2957 80)" fill="#D9D9D9"/>
<rect x="99.75" width="3" height="9" rx="1.5" fill="#32363F"/>
<rect x="96.75" y="6" width="3" height="9" rx="1.5" transform="rotate(-90 96.75 6)" fill="#32363F"/>
<rect x="104.75" y="69" width="3" height="9" rx="1.5" fill="#32363F"/>
<rect x="101.75" y="75" width="3" height="9" rx="1.5" transform="rotate(-90 101.75 75)" fill="#32363F"/>
<g clip-path="url(#clip0_210_3357)">
<rect x="34.7283" y="32.9143" width="52.0435" height="35.6286" fill="#FFF1D4"/>
<path d="M57.1875 58.3464C57.1875 59.3728 56.8953 60.2453 56.3108 60.9639C55.7263 61.6824 55.0259 62.0417 54.2095 62.0417H42.353C41.5366 62.0417 40.8362 61.6824 40.2517 60.9639C39.6672 60.2453 39.375 59.3728 39.375 58.3464C39.375 57.3385 39.4446 56.4007 39.5837 55.5329C39.7229 54.665 39.9502 53.8252 40.2656 53.0133C40.5811 52.2015 41.0542 51.5623 41.6851 51.0957C42.3159 50.6291 43.0674 50.3958 43.9395 50.3958C45.127 51.5903 46.5742 52.1875 48.2812 52.1875C49.9883 52.1875 51.4355 51.5903 52.623 50.3958C53.4951 50.3958 54.2466 50.6291 54.8774 51.0957C55.5083 51.5623 55.9814 52.2015 56.2969 53.0133C56.6123 53.8252 56.8396 54.665 56.9788 55.5329C57.1179 56.4007 57.1875 57.3385 57.1875 58.3464ZM53.625 45.9167C53.625 47.4097 53.1055 48.6788 52.0664 49.724C51.0273 50.7691 49.7656 51.2917 48.2812 51.2917C46.7969 51.2917 45.5352 50.7691 44.4961 49.724C43.457 48.6788 42.9375 47.4097 42.9375 45.9167C42.9375 44.4236 43.457 43.1545 44.4961 42.1094C45.5352 41.0642 46.7969 40.5417 48.2812 40.5417C49.7656 40.5417 51.0273 41.0642 52.0664 42.1094C53.1055 43.1545 53.625 44.4236 53.625 45.9167ZM82.125 57.5625V59.3542C82.125 59.6154 82.0415 59.8301 81.8745 59.998C81.7075 60.166 81.4941 60.25 81.2344 60.25H61.6406C61.3809 60.25 61.1675 60.166 61.0005 59.998C60.8335 59.8301 60.75 59.6154 60.75 59.3542V57.5625C60.75 57.3012 60.8335 57.0866 61.0005 56.9186C61.1675 56.7507 61.3809 56.6667 61.6406 56.6667H81.2344C81.4941 56.6667 81.7075 56.7507 81.8745 56.9186C82.0415 57.0866 82.125 57.3012 82.125 57.5625ZM71.4375 50.3958V52.1875C71.4375 52.4488 71.354 52.6634 71.187 52.8314C71.02 52.9993 70.8066 53.0833 70.5469 53.0833H61.6406C61.3809 53.0833 61.1675 52.9993 61.0005 52.8314C60.8335 52.6634 60.75 52.4488 60.75 52.1875V50.3958C60.75 50.1345 60.8335 49.9199 61.0005 49.752C61.1675 49.584 61.3809 49.5 61.6406 49.5H70.5469C70.8066 49.5 71.02 49.584 71.187 49.752C71.354 49.9199 71.4375 50.1345 71.4375 50.3958ZM82.125 50.3958V52.1875C82.125 52.4488 82.0415 52.6634 81.8745 52.8314C81.7075 52.9993 81.4941 53.0833 81.2344 53.0833H75.8906C75.6309 53.0833 75.4175 52.9993 75.2505 52.8314C75.0835 52.6634 75 52.4488 75 52.1875V50.3958C75 50.1345 75.0835 49.9199 75.2505 49.752C75.4175 49.584 75.6309 49.5 75.8906 49.5H81.2344C81.4941 49.5 81.7075 49.584 81.8745 49.752C82.0415 49.9199 82.125 50.1345 82.125 50.3958ZM82.125 43.2292V45.0208C82.125 45.2821 82.0415 45.4967 81.8745 45.6647C81.7075 45.8327 81.4941 45.9167 81.2344 45.9167H61.6406C61.3809 45.9167 61.1675 45.8327 61.0005 45.6647C60.8335 45.4967 60.75 45.2821 60.75 45.0208V43.2292C60.75 42.9679 60.8335 42.7533 61.0005 42.5853C61.1675 42.4173 61.3809 42.3333 61.6406 42.3333H81.2344C81.4941 42.3333 81.7075 42.4173 81.8745 42.5853C82.0415 42.7533 82.125 42.9679 82.125 43.2292ZM85.6875 66.5208V35.1667H35.8125V66.5208C35.8125 66.7635 35.9006 66.9734 36.0769 67.1507C36.2532 67.328 36.4619 67.4167 36.7031 67.4167H84.7969C85.0381 67.4167 85.2468 67.328 85.4231 67.1507C85.5994 66.9734 85.6875 66.7635 85.6875 66.5208ZM89.25 32.4792V66.5208C89.25 67.7526 88.814 68.8071 87.9419 69.6842C87.0698 70.5614 86.0215 71 84.7969 71H36.7031C35.4785 71 34.4302 70.5614 33.5581 69.6842C32.686 68.8071 32.25 67.7526 32.25 66.5208V32.4792C32.25 31.2474 32.686 30.1929 33.5581 29.3158C34.4302 28.4386 35.4785 28 36.7031 28H84.7969C86.0215 28 87.0698 28.4386 87.9419 29.3158C88.814 30.1929 89.25 31.2474 89.25 32.4792Z" fill="#FF5C00"/>
<path d="M42.1525 32.9143H49.6084C50.2869 32.9143 50.8369 32.3642 50.8369 31.6857C50.8369 31.0072 50.2869 30.4572 49.6084 30.4572H42.1525C41.4739 30.4572 40.9239 31.0072 40.9239 31.6857C40.9239 32.3642 41.4739 32.9143 42.1525 32.9143Z" fill="#F8F8F8"/>
<path d="M37.196 32.9143H38.4562C39.1347 32.9143 39.6848 32.3642 39.6848 31.6857C39.6848 31.0072 39.1347 30.4572 38.4562 30.4572H37.196C36.5175 30.4572 35.9674 31.0072 35.9674 31.6857C35.9674 32.3642 36.5175 32.9143 37.196 32.9143Z" fill="#F8F8F8"/>
</g>
<defs>
<clipPath id="clip0_210_3357">
<rect width="57" height="43" fill="white" transform="translate(32.25 28)"/>
</clipPath>
</defs>
</svg>
