<svg width="19" height="18" viewBox="0 0 19 18" fill="none" xmlns="http://www.w3.org/2000/svg">
<path d="M15.9688 1.96875H3.03125C2.72012 1.96875 2.46875 2.22012 2.46875 2.53125V15.4688C2.46875 15.7799 2.72012 16.0312 3.03125 16.0312H15.9688C16.2799 16.0312 16.5312 15.7799 16.5312 15.4688V2.53125C16.5312 2.22012 16.2799 1.96875 15.9688 1.96875ZM15.2656 10.125H9.78125V7.875H15.2656V10.125ZM15.2656 14.7656H3.73438V3.23438H15.2656V6.75H9.21875C8.90765 6.75 8.65625 7.00137 8.65625 7.3125V10.6875C8.65625 10.9986 8.90765 11.25 9.21875 11.25H15.2656V14.7656Z" fill="#FF5C00"/>
<path d="M10.6953 9C10.6953 9.18645 10.7693 9.36532 10.9012 9.49717C11.0331 9.62902 11.2119 9.70312 11.3984 9.70312C11.5849 9.70312 11.7637 9.62902 11.8956 9.49717C12.0275 9.36532 12.1016 9.18645 12.1016 9C12.1016 8.81355 12.0275 8.63468 11.8956 8.50283C11.7637 8.37098 11.5849 8.29688 11.3984 8.29688C11.2119 8.29688 11.0331 8.37098 10.9012 8.50283C10.7693 8.63468 10.6953 8.81355 10.6953 9Z" fill="#FF5C00"/>
</svg>
