<svg width="18" height="18" viewBox="0 0 24 24" fill="none" xmlns="http://www.w3.org/2000/svg">
<path fill-rule="evenodd" clip-rule="evenodd" d="M4.04899 3.33784C4.55428 2.55574 5.37426 2 6.52381 2H13.4286C13.9559 2 14.7804 2.19444 15.4923 2.87841C16.0659 3.42944 16.5027 4.23725 16.678 5.33333H20.0952C21.1472 5.33333 22 6.32826 22 7.55556V19.7778C22 21.0051 21.1472 22 20.0952 22H3.90476C2.85279 22 2 21.0051 2 19.7778V7.55556C2 6.51954 2.60768 5.64911 3.42988 5.40295C3.44549 4.82259 3.60344 4.02747 4.04899 3.33784ZM3.90476 7.55556V19.7778H20.0952V17.5556H12.4762C11.9502 17.5556 11.5238 17.0581 11.5238 16.4444V10.3333C11.5238 9.71968 11.9502 9.22222 12.4762 9.22222H20.0952V7.55556H3.90476ZM14.7124 5.33333H5.34435C5.36918 5.13228 5.43794 4.87992 5.57006 4.67543C5.70762 4.4625 5.95908 4.22222 6.52381 4.22222H13.4286C13.6155 4.22222 13.9815 4.30556 14.2815 4.59381C14.4298 4.73631 14.5967 4.9613 14.7124 5.33333ZM20.0952 15.3333V11.4444H13.4286V15.3333H20.0952Z" fill="#FF5C00"/>
</svg>
